# xmcd
#
# Track frame offsets:
#	150
#	15925
#	47025
#
# Disc length: 1078 seconds
#
# Revision: 0
# Processed by: cddbd v1.4PL0 Copyright (c) Steve Scherf et al.
# Submitted via: audiograbber 1.82.02
#
DISCID=16043403
DTITLE=First Choice - Ain't He Bad
DYEAR=1900
DGENRE=
TTITLE0=Harlem Hustlers Electro Clubmix (Radio edit)
TTITLE1=Harlem Hustlers Mix
TTITLE2=Beinnerz Club Mix
EXTD=
EXTT0=
EXTT1=
EXTT2=
PLAYORDER=
